<?xml version="1.0" encoding="UTF-8" standalone="no"?>
<svg
   xmlns:dc="http://purl.org/dc/elements/1.1/"
   xmlns:cc="http://creativecommons.org/ns#"
   xmlns:rdf="http://www.w3.org/1999/02/22-rdf-syntax-ns#"
   xmlns:svg="http://www.w3.org/2000/svg"
   xmlns="http://www.w3.org/2000/svg"
   xmlns:sodipodi="http://sodipodi.sourceforge.net/DTD/sodipodi-0.dtd"
   xmlns:inkscape="http://www.inkscape.org/namespaces/inkscape"
   inkscape:version="1.0 (4035a4fb49, 2020-05-01)"
   height="47.223274"
   width="47.274399"
   sodipodi:docname="target.svg"
   version="1.1"
   viewBox="0 0 47.274399 47.223275"
   data-name="Layer 1"
   id="Layer_1">
  <metadata
     id="metadata13">
    <rdf:RDF>
      <cc:Work
         rdf:about="">
        <dc:format>image/svg+xml</dc:format>
        <dc:type
           rdf:resource="http://purl.org/dc/dcmitype/StillImage" />
        <dc:title>location-target</dc:title>
      </cc:Work>
    </rdf:RDF>
  </metadata>
  <sodipodi:namedview
     inkscape:current-layer="Layer_1"
     inkscape:window-maximized="1"
     inkscape:window-y="-9"
     inkscape:window-x="-9"
     inkscape:cy="26.14753"
     inkscape:cx="33.220808"
     inkscape:zoom="13.509115"
     fit-margin-left="1"
     fit-margin-bottom="1"
     fit-margin-right="1"
     fit-margin-top="1"
     showgrid="false"
     id="namedview11"
     inkscape:window-height="1001"
     inkscape:window-width="1920"
     inkscape:pageshadow="2"
     inkscape:pageopacity="0"
     guidetolerance="10"
     gridtolerance="10"
     objecttolerance="10"
     borderopacity="1"
     bordercolor="#666666"
     pagecolor="#ffffff" />
  <defs
     id="defs4">
    <style
       id="style2">.cls-1{fill-rule:evenodd;}</style>
  </defs>
  <title
     id="title6">location-target</title>
  <path
     style="fill:#ffffff;stroke-width:0.559552;stroke-linejoin:bevel;paint-order:fill markers stroke"
     d="m 22.119032,46.329144 c -0.711168,-0.146023 -1.034768,-0.613193 -1.052405,-1.519316 -0.0088,-0.454009 -0.0588,-1.219219 -0.111036,-1.700467 l -0.09497,-0.874996 -1.557905,-0.405621 C 17.19021,41.278724 15.573437,40.635862 14.147878,39.779076 9.6617449,37.082833 6.2995553,32.496081 5.4014783,27.847104 c -0.09438,-0.488559 -0.201249,-1.029 -0.23749,-1.20098 -0.06158,-0.292224 -0.183187,-0.317522 -1.857779,-0.38649 -1.647527,-0.06785 -1.820765,-0.102676 -2.150338,-0.432249 -0.32806604,-0.328068 -0.36147504,-0.490357 -0.39412804,-1.914586 -0.05422,-2.364928 0.119333,-2.505791 3.08729004,-2.505791 h 1.231038 l 0.09348,-0.555181 c 0.421759,-2.504758 1.719528,-5.669684 3.14949,-7.680805 C 10.98907,9.4214815 14.929704,6.8170406 19.375338,5.8663476 c 0.811625,-0.173565 1.488755,-0.328836 1.504732,-0.345046 0.01598,-0.01621 0.07537,-0.828934 0.131976,-1.806052 0.06207,-1.071425 0.182826,-1.9039201 0.304224,-2.0974071 0.254401,-0.405463 1.595698,-0.576889 3.097404,-0.395866 1.291253,0.155654 1.360924,0.273932 1.498829,2.5445261 0.09896,1.629311 0.107045,1.658369 0.485338,1.743962 3.456899,0.782165 5.51224,1.660844 7.966597,3.4057999 2.01439,1.4321565 4.239606,3.9885915 5.396018,6.1992025 0.634033,1.212025 1.493744,3.618695 1.74505,4.885083 0.09695,0.488559 0.206902,0.996733 0.244336,1.129278 0.05669,0.200713 0.36494,0.251572 1.844523,0.304324 2.416736,0.08617 2.434445,0.103865 2.434445,2.432968 0,2.210197 0.01749,2.1931 -2.390174,2.337043 -0.960563,0.05743 -1.76147,0.119405 -1.779791,0.137726 -0.01832,0.01832 -0.140721,0.553313 -0.271999,1.188872 -0.74388,3.601353 -2.380046,6.587849 -5.088099,9.287314 -2.638713,2.630346 -5.267313,4.116337 -8.60584,4.865021 -0.447846,0.100431 -1.055897,0.243275 -1.351227,0.317431 l -0.536962,0.134828 -0.06346,1.779894 c -0.083,2.328014 -0.132453,2.386475 -2.069718,2.446825 -0.760317,0.02369 -1.548947,0.0089 -1.752513,-0.03293 z m -1.129469,-9.747197 c 0.463782,-2.130019 0.884961,-2.886076 1.827032,-3.279698 1.309825,-0.547281 2.429576,0.608292 2.855248,2.94659 0.219442,1.205435 0.255406,1.214347 2.17226,0.538262 3.093259,-1.091009 5.139102,-2.545834 6.891372,-4.900546 0.938502,-1.261165 2.188376,-4.171152 2.188376,-5.09503 0,-0.357716 -0.380786,-0.646975 -0.851686,-0.646975 -0.779126,0 -1.911256,-0.503259 -2.534757,-1.126759 -0.597841,-0.597841 -0.643561,-0.696675 -0.571344,-1.235091 0.164327,-1.225148 0.906645,-1.781668 2.936278,-2.201352 0.843512,-0.174419 1.169301,-0.304657 1.16864,-0.467174 -0.0024,-0.58806 -1.19916,-3.630766 -1.819608,-4.626234 -1.287252,-2.065311 -3.391054,-4.043005 -5.358828,-5.037604 -0.97603,-0.493328 -3.235079,-1.29499 -3.649228,-1.29499 -0.187109,0 -0.288057,0.158115 -0.354455,0.555181 -0.307809,1.840696 -0.845079,2.886742 -1.727401,3.363188 -0.536606,0.289762 -0.542723,0.289746 -1.249437,-0.0031 -0.962688,-0.398977 -1.468034,-1.223712 -1.695961,-2.767852 -0.155957,-1.056553 -0.196826,-1.147374 -0.516313,-1.147374 -0.575453,0 -1.666858,0.412288 -3.580422,1.352536 -1.533571,0.753534 -2.012846,1.078336 -3.075574,2.084297 -1.400827,1.325999 -2.636032,3.06448 -3.320987,4.674101 -0.507794,1.193296 -0.9500991,2.778473 -0.8296471,2.973368 0.04362,0.07058 0.4305721,0.173871 0.8598891,0.229531 1.310562,0.169909 1.926607,0.421132 2.588956,1.055775 0.50559,0.48444 0.634303,0.710733 0.633862,1.11441 -0.0013,1.195689 -1.129779,2.089538 -3.006332,2.38128 -1.3143971,0.204343 -1.2975021,0.169545 -0.825268,1.699829 1.336511,4.331003 4.69271,7.776934 8.939816,9.178835 1.442904,0.476278 1.743621,0.426194 1.905519,-0.317361 z"
     id="path844" />
  <path
     style="fill:#ffffff;stroke-width:0.559552;stroke-linejoin:bevel;paint-order:fill markers stroke"
     d="m 22.109969,28.163191 c -2.324332,-0.626782 -3.672913,-3.267874 -2.958437,-5.79387 0.313223,-1.107385 1.720449,-2.478277 2.894232,-2.819505 1.093851,-0.317991 2.573136,-0.233857 3.411006,0.194 0.677105,0.345763 1.690391,1.382917 2.078461,2.127418 0.378848,0.726808 0.457038,2.565339 0.148593,3.493978 -0.469185,1.412584 -1.755787,2.514007 -3.314345,2.837315 -0.968674,0.200942 -1.396065,0.193502 -2.25951,-0.03934 z"
     id="path846" />
</svg>
